<svg width="256px" height="256px" viewBox="-6.4 -6.4 76.80 76.80" xmlns="http://www.w3.org/2000/svg" 
><g id="SVGRepo_bgCarrier" stroke-width="0"><path transform="translate(-6.4, -6.4), scale(2.4)" d="M16,26.411477843201475C18.451202068494556,26.222943895841375,21.13879832729873,27.253170886656633,23.174832949139734,25.8753103535968C25.22699142203018,24.486538209426012,25.3983537737232,21.64626783649198,26.394254804470542,19.377298113635995C27.53558380937758,16.776998609971347,29.897832454867604,14.4382591173689,29.42374522558832,11.638360778993917C28.935083290929835,8.752386100963957,26.19245606781549,6.935898788616368,23.96591826358671,5.035854122048134C21.541473924938153,2.9669233694277724,19.112951407166737,-0.5010250193888507,16.000000000000004,0.18303517311027306C12.742269768085587,0.8989100063707942,12.868557843797268,6.017656205723435,10.227492580797431,8.054825152423867C7.725320741110501,9.984859537613092,2.9591652050430852,8.472762237969038,1.5719296512456093,11.312035765055718C0.23400263923085296,14.050388841423207,3.374647292204534,16.90605637061345,4.523687025961149,19.72888012539846C5.565757676388207,22.28891499605755,5.587253700737019,25.653493321570892,7.975816502080079,27.044341093080114C10.35257526336102,28.428315433082332,13.257759982022984,26.622396943606592,16,26.411477843201475" fill="#ffffff" strokewidth="0"></path></g><g id="SVGRepo_tracerCarrier" stroke-linecap="round" stroke-linejoin="round"></g><g id="SVGRepo_iconCarrier"> <defs> <style>.cls-1{fill:#008bc7;}.cls-2{fill:#f2f2fc;}.cls-3{fill:#ff6666;}.cls-4{fill:#fedb71;}.cls-5{fill:#23d100;}</style> </defs> <title></title> <g id="presentation"> <rect class="cls-1" height="6" width="54" x="5" y="7"></rect> <path class="cls-2" d="M9,47.27a13.447,13.447,0,0,1,3.354-1.624,7,7,0,1,1,8.272,0A13.507,13.507,0,0,1,26.078,49H55V15H9ZM37,46a1,1,0,0,1-1,1H32a1,1,0,0,1-1-1V38a1,1,0,0,1,1-1h4a1,1,0,0,1,1,1Zm8,0a1,1,0,0,1-1,1H40a1,1,0,0,1-1-1V34a1,1,0,0,1,1-1h4a1,1,0,0,1,1,1Zm8,0a1,1,0,0,1-1,1H48a1,1,0,0,1-1-1V30a1,1,0,0,1,1-1h4a1,1,0,0,1,1,1ZM36,17H52a1,1,0,0,1,0,2H36a1,1,0,0,1,0-2Zm0,4H52a1,1,0,0,1,0,2H36a1,1,0,0,1,0-2Zm0,4H52a1,1,0,0,1,0,2H36a1,1,0,0,1,0-2ZM11,18a1,1,0,0,1,1-1H32a1,1,0,0,1,1,1V30a1,1,0,0,1-1,1H12a1,1,0,0,1-1-1Z"></path> <rect class="cls-3" height="10" width="18" x="13" y="19"></rect> <path d="M12,31H32a1,1,0,0,0,1-1V18a1,1,0,0,0-1-1H12a1,1,0,0,0-1,1V30A1,1,0,0,0,12,31Zm1-12H31V29H13Z"></path> <rect class="cls-3" height="6" width="2" x="33" y="39"></rect> <path d="M36,37H32a1,1,0,0,0-1,1v8a1,1,0,0,0,1,1h4a1,1,0,0,0,1-1V38A1,1,0,0,0,36,37Zm-1,8H33V39h2Z"></path> <rect class="cls-4" height="10" width="2" x="41" y="35"></rect> <path d="M44,33H40a1,1,0,0,0-1,1V46a1,1,0,0,0,1,1h4a1,1,0,0,0,1-1V34A1,1,0,0,0,44,33ZM43,45H41V35h2Z"></path> <rect class="cls-5" height="14" width="2" x="49" y="31"></rect> <path d="M52,29H48a1,1,0,0,0-1,1V46a1,1,0,0,0,1,1h4a1,1,0,0,0,1-1V30A1,1,0,0,0,52,29ZM51,45H49V31h2Z"></path> <circle class="cls-4" cx="16.49" cy="40" r="5"></circle> <path class="cls-4" d="M16.49,47a11.509,11.509,0,0,0-11.4,10H27.893A11.508,11.508,0,0,0,16.49,47Z"></path> <path d="M60,5H4A1,1,0,0,0,3,6v8a1,1,0,0,0,1,1H7V48.9a13.457,13.457,0,0,0-4,9.058A1,1,0,0,0,4,59H28.98a1,1,0,0,0,1-1.039A13.421,13.421,0,0,0,27.714,51H56a1,1,0,0,0,1-1V15h3a1,1,0,0,0,1-1V6A1,1,0,0,0,60,5Zm-1,8H5V7H59ZM5.087,57a11.5,11.5,0,0,1,22.806,0Zm11.4-12a5,5,0,1,1,5-5A5,5,0,0,1,16.49,45ZM55,49H26.078a13.507,13.507,0,0,0-5.452-3.354,7,7,0,1,0-8.272,0A13.447,13.447,0,0,0,9,47.27V15H55Z"></path> <path d="M36,19H52a1,1,0,0,0,0-2H36a1,1,0,0,0,0,2Z"></path> <path d="M36,23H52a1,1,0,0,0,0-2H36a1,1,0,0,0,0,2Z"></path> <path d="M36,27H52a1,1,0,0,0,0-2H36a1,1,0,0,0,0,2Z"></path> </g> </g></svg>